<svg width="80" height="88" viewBox="0 0 80 88" fill="none" xmlns="http://www.w3.org/2000/svg">
<path d="M35.125 3.10352C38.0473 1.4163 41.6264 1.36361 44.5898 2.94531L44.875 3.10352L72.9805 19.3301C75.9969 21.0718 77.8554 24.2903 77.8555 27.7734V60.2266C77.8554 63.601 76.1113 66.7274 73.2598 68.5029L72.9805 68.6699L44.875 84.8965C41.9527 86.5837 38.3736 86.6364 35.4102 85.0547L35.125 84.8965L7.01953 68.6699C4.00313 66.9282 2.14455 63.7097 2.14453 60.2266V27.7734C2.14455 24.399 3.8887 21.2726 6.74023 19.4971L7.01953 19.3301L35.125 3.10352Z" fill="url(#paint0_linear_90_1400)" stroke="#5BC7D8" stroke-width="0.5"/>
<path d="M23.584 21.288H26.096C26.608 21.288 27.024 21.408 27.328 21.664C27.632 21.92 27.784 22.272 27.784 22.72C27.784 23.048 27.688 23.328 27.504 23.56C27.32 23.784 27.08 23.936 26.792 24.024C27.168 24.088 27.464 24.24 27.688 24.48C27.904 24.728 28.016 25.04 28.016 25.424C28.016 25.968 27.816 26.376 27.432 26.648C27.096 26.88 26.64 27 26.072 27H23.584V21.288ZM24.072 21.712V23.84H25.992C26.4 23.84 26.72 23.744 26.944 23.568C27.176 23.384 27.296 23.12 27.296 22.768C27.296 22.416 27.176 22.144 26.952 21.968C26.72 21.792 26.4 21.712 26 21.712H24.072ZM24.072 24.256V26.576H26.056C26.48 26.576 26.824 26.488 27.08 26.32C27.376 26.112 27.528 25.816 27.528 25.416C27.528 25.024 27.384 24.728 27.112 24.536C26.848 24.344 26.496 24.256 26.048 24.256H24.072ZM34.6474 21.288H35.2234L37.5114 27H36.9754L36.3114 25.296H33.5594L32.8954 27H32.3594L34.6474 21.288ZM33.7194 24.88H36.1514L34.9514 21.816H34.9274L33.7194 24.88ZM42.0918 21.288H42.6438L46.0998 26.24H46.1238V21.288H46.6198V27H46.0758L42.6038 22.008H42.5798V27H42.0918V21.288ZM51.7871 21.288H53.8191C54.7071 21.288 55.3791 21.552 55.8271 22.088C56.2351 22.568 56.4431 23.256 56.4431 24.144C56.4431 25.016 56.2111 25.704 55.7551 26.208C55.2751 26.736 54.5951 27 53.7151 27H51.7871V21.288ZM52.2751 21.72V26.568H53.6431C54.4031 26.568 54.9871 26.352 55.3871 25.92C55.7711 25.504 55.9631 24.912 55.9631 24.144C55.9631 23.344 55.7951 22.752 55.4591 22.36C55.0911 21.928 54.5151 21.72 53.7471 21.72H52.2751Z" fill="white"/>
<path d="M28.9447 62.088C29.2567 62.088 29.5047 62.164 29.6887 62.316C29.8767 62.468 29.9847 62.692 30.0087 62.988H29.7647C29.7327 62.764 29.6487 62.596 29.5127 62.48C29.3767 62.364 29.1847 62.308 28.9367 62.308C28.7047 62.308 28.5247 62.348 28.3927 62.428C28.2407 62.516 28.1687 62.652 28.1687 62.832C28.1687 62.992 28.2567 63.116 28.4367 63.212C28.5207 63.252 28.7047 63.316 28.9847 63.396C29.3487 63.5 29.5927 63.588 29.7207 63.668C29.9567 63.808 30.0767 64.008 30.0767 64.268C30.0767 64.512 29.9727 64.708 29.7687 64.852C29.5727 64.988 29.3127 65.056 28.9887 65.056C28.6607 65.056 28.4007 64.98 28.2127 64.832C27.9967 64.66 27.8767 64.4 27.8527 64.056H28.0927C28.1207 64.324 28.2127 64.524 28.3727 64.656C28.5167 64.772 28.7207 64.832 28.9847 64.832C29.2367 64.832 29.4407 64.78 29.5967 64.684C29.7487 64.584 29.8287 64.448 29.8287 64.28C29.8287 64.084 29.7287 63.932 29.5367 63.824C29.4407 63.768 29.2327 63.692 28.9087 63.604C28.5687 63.508 28.3487 63.432 28.2527 63.376C28.0327 63.252 27.9247 63.072 27.9247 62.84C27.9247 62.592 28.0247 62.404 28.2327 62.272C28.4167 62.148 28.6567 62.088 28.9447 62.088ZM30.701 62.188C30.757 62.188 30.805 62.208 30.845 62.248C30.885 62.28 30.905 62.328 30.905 62.388C30.905 62.444 30.881 62.492 30.841 62.532C30.801 62.568 30.757 62.588 30.701 62.588C30.641 62.588 30.593 62.568 30.557 62.532C30.517 62.492 30.497 62.444 30.497 62.388C30.497 62.328 30.517 62.28 30.557 62.248C30.593 62.208 30.641 62.188 30.701 62.188ZM30.581 62.932H30.821V65H30.581V62.932ZM32.2854 62.876C32.6134 62.876 32.8294 63.016 32.9334 63.3C33.0054 63.16 33.0974 63.056 33.2094 62.984C33.3134 62.912 33.4414 62.876 33.5854 62.876C33.8014 62.876 33.9774 62.944 34.1054 63.08C34.2294 63.216 34.2934 63.404 34.2934 63.648V65H34.0534V63.68C34.0534 63.484 34.0134 63.336 33.9334 63.24C33.8454 63.136 33.7054 63.084 33.5214 63.084C33.3694 63.084 33.2454 63.14 33.1454 63.256C33.0414 63.368 32.9934 63.508 32.9934 63.684V65H32.7494V63.68C32.7494 63.28 32.5774 63.084 32.2334 63.084C32.0774 63.084 31.9494 63.144 31.8454 63.272C31.7374 63.396 31.6854 63.548 31.6854 63.728V65H31.4454V62.932H31.6854V63.244C31.8334 62.996 32.0334 62.876 32.2854 62.876ZM34.7969 62.932H35.0369V64.196C35.0369 64.412 35.0809 64.572 35.1729 64.68C35.2689 64.792 35.4169 64.848 35.6169 64.848C35.7769 64.848 35.9169 64.784 36.0369 64.664C36.1569 64.544 36.2249 64.384 36.2409 64.188V62.932H36.4809V65H36.2409V64.652C36.0809 64.92 35.8489 65.056 35.5529 65.056C35.0489 65.056 34.7969 64.772 34.7969 64.208V62.932ZM37.0604 62.088H37.3004V65H37.0604V62.088ZM38.755 62.876C39.043 62.876 39.259 62.952 39.399 63.112C39.519 63.244 39.583 63.428 39.583 63.668V65H39.355V64.604C39.271 64.724 39.159 64.828 39.023 64.908C38.855 65.004 38.675 65.056 38.479 65.056C38.279 65.056 38.115 65.004 37.995 64.904C37.863 64.8 37.799 64.66 37.799 64.492C37.799 64.252 37.895 64.076 38.091 63.964C38.259 63.856 38.503 63.8 38.815 63.8L39.343 63.792V63.668C39.343 63.276 39.143 63.08 38.743 63.08C38.575 63.08 38.439 63.112 38.331 63.184C38.211 63.26 38.135 63.368 38.103 63.512L37.867 63.496C37.907 63.288 38.011 63.128 38.179 63.024C38.327 62.924 38.519 62.876 38.755 62.876ZM39.343 63.98L38.827 63.988C38.303 63.992 38.043 64.16 38.043 64.488C38.043 64.6 38.087 64.688 38.175 64.756C38.263 64.824 38.383 64.86 38.527 64.86C38.735 64.86 38.927 64.788 39.095 64.644C39.259 64.508 39.343 64.356 39.343 64.196V63.98ZM40.586 62.264V62.932H41.126V63.14H40.586V64.54C40.586 64.628 40.602 64.696 40.634 64.736C40.666 64.772 40.726 64.792 40.814 64.792H41.074V65H40.782C40.622 65 40.506 64.956 40.438 64.876C40.374 64.804 40.346 64.692 40.346 64.54V63.14H39.906V62.932H40.346V62.364L40.586 62.264ZM42.3243 62.876C42.6523 62.876 42.8963 62.984 43.0603 63.208C43.2043 63.404 43.2843 63.68 43.2963 64.036H41.6163C41.6283 64.288 41.6963 64.488 41.8203 64.632C41.9483 64.776 42.1163 64.848 42.3323 64.848C42.5203 64.848 42.6723 64.796 42.7883 64.7C42.8843 64.616 42.9563 64.496 43.0083 64.336H43.2523C43.2043 64.536 43.1123 64.7 42.9763 64.828C42.8083 64.98 42.5963 65.056 42.3323 65.056C42.0403 65.056 41.8083 64.956 41.6363 64.76C41.4563 64.56 41.3683 64.292 41.3683 63.964C41.3683 63.66 41.4523 63.408 41.6243 63.2C41.8003 62.984 42.0323 62.876 42.3243 62.876ZM42.3283 63.084C42.1243 63.084 41.9603 63.152 41.8363 63.296C41.7123 63.436 41.6403 63.616 41.6203 63.84H43.0443C43.0043 63.336 42.7643 63.084 42.3283 63.084ZM45.2397 62.088H45.4797V65H45.2517V64.592C45.1077 64.9 44.8677 65.056 44.5277 65.056C44.2277 65.056 43.9957 64.944 43.8277 64.728C43.6757 64.528 43.5997 64.272 43.5997 63.964C43.5997 63.66 43.6757 63.408 43.8277 63.208C43.9957 62.984 44.2237 62.876 44.5157 62.876C44.8437 62.876 45.0877 63.04 45.2397 63.368V62.088ZM44.5597 63.08C44.3237 63.08 44.1437 63.168 44.0157 63.344C43.8997 63.496 43.8437 63.704 43.8437 63.964C43.8437 64.224 43.8997 64.432 44.0117 64.588C44.1357 64.764 44.3157 64.852 44.5517 64.852C44.7757 64.852 44.9517 64.764 45.0757 64.596C45.1877 64.44 45.2477 64.24 45.2477 63.996V63.948C45.2477 63.692 45.1837 63.488 45.0637 63.328C44.9357 63.16 44.7677 63.08 44.5597 63.08ZM47.3165 62.088H47.5565V63.368C47.7085 63.04 47.9485 62.876 48.2805 62.876C48.5685 62.876 48.8005 62.984 48.9685 63.208C49.1205 63.408 49.1965 63.66 49.1965 63.964C49.1965 64.272 49.1205 64.528 48.9685 64.728C48.8005 64.944 48.5685 65.056 48.2725 65.056C47.9285 65.056 47.6845 64.9 47.5445 64.592V65H47.3165V62.088ZM48.2365 63.08C48.0245 63.08 47.8565 63.16 47.7325 63.328C47.6085 63.488 47.5485 63.692 47.5485 63.948V63.996C47.5485 64.24 47.6045 64.44 47.7205 64.596C47.8405 64.764 48.0165 64.852 48.2445 64.852C48.4765 64.852 48.6565 64.764 48.7845 64.588C48.8965 64.432 48.9525 64.224 48.9525 63.964C48.9525 63.704 48.8925 63.496 48.7805 63.344C48.6525 63.168 48.4725 63.08 48.2365 63.08ZM49.3891 62.932H49.6531L50.3291 64.656L50.9971 62.932H51.2611L50.1211 65.792H49.8611L50.2091 64.948L49.3891 62.932ZM27.0748 67.088C27.3748 67.088 27.6348 67.168 27.8508 67.336C28.0748 67.504 28.2028 67.728 28.2388 68.008H28.0028C27.9668 67.788 27.8588 67.616 27.6788 67.492C27.5068 67.372 27.3028 67.312 27.0708 67.312C26.7188 67.312 26.4468 67.436 26.2468 67.684C26.0588 67.916 25.9668 68.216 25.9668 68.584C25.9668 68.952 26.0588 69.252 26.2428 69.476C26.4348 69.712 26.7028 69.832 27.0468 69.832C27.2908 69.832 27.4988 69.764 27.6748 69.636C27.8628 69.492 27.9868 69.288 28.0428 69.024H28.2788C28.2188 69.352 28.0708 69.612 27.8308 69.8C27.6108 69.968 27.3508 70.056 27.0508 70.056C26.6228 70.056 26.2908 69.908 26.0508 69.616C25.8308 69.348 25.7228 69.004 25.7228 68.584C25.7228 68.164 25.8348 67.816 26.0588 67.54C26.3028 67.236 26.6428 67.088 27.0748 67.088ZM29.5372 67.876C29.8652 67.876 30.1092 67.984 30.2732 68.208C30.4172 68.404 30.4972 68.68 30.5092 69.036H28.8292C28.8412 69.288 28.9092 69.488 29.0332 69.632C29.1612 69.776 29.3292 69.848 29.5452 69.848C29.7332 69.848 29.8852 69.796 30.0012 69.7C30.0972 69.616 30.1692 69.496 30.2212 69.336H30.4652C30.4172 69.536 30.3252 69.7 30.1892 69.828C30.0212 69.98 29.8092 70.056 29.5452 70.056C29.2532 70.056 29.0212 69.956 28.8492 69.76C28.6692 69.56 28.5812 69.292 28.5812 68.964C28.5812 68.66 28.6652 68.408 28.8372 68.2C29.0132 67.984 29.2452 67.876 29.5372 67.876ZM29.5412 68.084C29.3372 68.084 29.1732 68.152 29.0492 68.296C28.9252 68.436 28.8532 68.616 28.8332 68.84H30.2572C30.2172 68.336 29.9772 68.084 29.5412 68.084ZM31.7606 67.876C31.8806 67.876 31.9806 67.888 32.0606 67.92V68.164C31.9526 68.132 31.8486 68.12 31.7446 68.12C31.5606 68.12 31.4086 68.2 31.2966 68.368C31.1846 68.52 31.1326 68.7 31.1326 68.908V70H30.8926V67.932H31.1326V68.328C31.1886 68.2 31.2646 68.096 31.3606 68.02C31.4726 67.924 31.6086 67.876 31.7606 67.876ZM32.834 67.264V67.932H33.374V68.14H32.834V69.54C32.834 69.628 32.85 69.696 32.882 69.736C32.914 69.772 32.974 69.792 33.062 69.792H33.322V70H33.03C32.87 70 32.754 69.956 32.686 69.876C32.622 69.804 32.594 69.692 32.594 69.54V68.14H32.154V67.932H32.594V67.364L32.834 67.264ZM33.9764 67.188C34.0324 67.188 34.0804 67.208 34.1204 67.248C34.1604 67.28 34.1804 67.328 34.1804 67.388C34.1804 67.444 34.1564 67.492 34.1164 67.532C34.0764 67.568 34.0324 67.588 33.9764 67.588C33.9164 67.588 33.8684 67.568 33.8324 67.532C33.7924 67.492 33.7724 67.444 33.7724 67.388C33.7724 67.328 33.7924 67.28 33.8324 67.248C33.8684 67.208 33.9164 67.188 33.9764 67.188ZM33.8564 67.932H34.0964V70H33.8564V67.932ZM35.5608 67.144H35.9288V67.356H35.5808C35.4768 67.356 35.4008 67.38 35.3528 67.436C35.3048 67.488 35.2808 67.572 35.2808 67.692V67.932H36.5448V70H36.3048V68.14H35.2808V70H35.0408V68.14H34.4888V67.932H35.0408V67.688C35.0408 67.516 35.0808 67.384 35.1688 67.292C35.2568 67.192 35.3848 67.144 35.5608 67.144ZM37.9591 67.876C38.2871 67.876 38.5311 67.984 38.6951 68.208C38.8391 68.404 38.9191 68.68 38.9311 69.036H37.2511C37.2631 69.288 37.3311 69.488 37.4551 69.632C37.5831 69.776 37.7511 69.848 37.9671 69.848C38.1551 69.848 38.3071 69.796 38.4231 69.7C38.5191 69.616 38.5911 69.496 38.6431 69.336H38.8871C38.8391 69.536 38.7471 69.7 38.6111 69.828C38.4431 69.98 38.2311 70.056 37.9671 70.056C37.6751 70.056 37.4431 69.956 37.2711 69.76C37.0911 69.56 37.0031 69.292 37.0031 68.964C37.0031 68.66 37.0871 68.408 37.2591 68.2C37.4351 67.984 37.6671 67.876 37.9591 67.876ZM37.9631 68.084C37.7591 68.084 37.5951 68.152 37.4711 68.296C37.3471 68.436 37.2751 68.616 37.2551 68.84H38.6791C38.6391 68.336 38.3991 68.084 37.9631 68.084ZM40.8745 67.088H41.1145V70H40.8865V69.592C40.7425 69.9 40.5025 70.056 40.1625 70.056C39.8625 70.056 39.6305 69.944 39.4625 69.728C39.3105 69.528 39.2345 69.272 39.2345 68.964C39.2345 68.66 39.3105 68.408 39.4625 68.208C39.6305 67.984 39.8585 67.876 40.1505 67.876C40.4785 67.876 40.7225 68.04 40.8745 68.368V67.088ZM40.1945 68.08C39.9585 68.08 39.7785 68.168 39.6505 68.344C39.5345 68.496 39.4785 68.704 39.4785 68.964C39.4785 69.224 39.5345 69.432 39.6465 69.588C39.7705 69.764 39.9505 69.852 40.1865 69.852C40.4105 69.852 40.5865 69.764 40.7105 69.596C40.8225 69.44 40.8825 69.24 40.8825 68.996V68.948C40.8825 68.692 40.8185 68.488 40.6985 68.328C40.5705 68.16 40.4025 68.08 40.1945 68.08ZM43.0272 67.144H43.2712V70H43.0272V67.144ZM43.8897 67.144H45.8937V67.36H44.1337V68.412H45.7977V68.632H44.1337V69.784H45.9617V70H43.8897V67.144ZM46.4248 67.144H46.6688V69.784H48.3848V70H46.4248V67.144ZM48.5486 67.144H50.8886V67.36H49.8406V70H49.5966V67.36H48.5486V67.144ZM52.1849 67.088C52.4969 67.088 52.7449 67.164 52.9289 67.316C53.1169 67.468 53.2249 67.692 53.2489 67.988H53.0049C52.9729 67.764 52.8889 67.596 52.7529 67.48C52.6169 67.364 52.4249 67.308 52.1769 67.308C51.9449 67.308 51.7649 67.348 51.6329 67.428C51.4809 67.516 51.4089 67.652 51.4089 67.832C51.4089 67.992 51.4969 68.116 51.6769 68.212C51.7609 68.252 51.9449 68.316 52.2249 68.396C52.5889 68.5 52.8329 68.588 52.9609 68.668C53.1969 68.808 53.3169 69.008 53.3169 69.268C53.3169 69.512 53.2129 69.708 53.0089 69.852C52.8129 69.988 52.5529 70.056 52.2289 70.056C51.9009 70.056 51.6409 69.98 51.4529 69.832C51.2369 69.66 51.1169 69.4 51.0929 69.056H51.3329C51.3609 69.324 51.4529 69.524 51.6129 69.656C51.7569 69.772 51.9609 69.832 52.2249 69.832C52.4769 69.832 52.6809 69.78 52.8369 69.684C52.9889 69.584 53.0689 69.448 53.0689 69.28C53.0689 69.084 52.9689 68.932 52.7769 68.824C52.6809 68.768 52.4729 68.692 52.1489 68.604C51.8089 68.508 51.5889 68.432 51.4929 68.376C51.2729 68.252 51.1649 68.072 51.1649 67.84C51.1649 67.592 51.2649 67.404 51.4729 67.272C51.6569 67.148 51.8969 67.088 52.1849 67.088ZM31.3584 72.144H33.3624V72.36H31.6024V73.412H33.2664V73.632H31.6024V74.784H33.4304V75H31.3584V72.144ZM33.7096 72.932H33.9976L34.5896 73.728L35.1816 72.932H35.4656L34.7256 73.908L35.5536 75H35.2656L34.5896 74.088L33.9096 75H33.6216L34.4536 73.908L33.7096 72.932ZM36.7022 72.876C36.9902 72.876 37.2062 72.952 37.3462 73.112C37.4662 73.244 37.5302 73.428 37.5302 73.668V75H37.3022V74.604C37.2182 74.724 37.1062 74.828 36.9702 74.908C36.8022 75.004 36.6222 75.056 36.4262 75.056C36.2262 75.056 36.0622 75.004 35.9422 74.904C35.8102 74.8 35.7462 74.66 35.7462 74.492C35.7462 74.252 35.8422 74.076 36.0382 73.964C36.2062 73.856 36.4502 73.8 36.7622 73.8L37.2902 73.792V73.668C37.2902 73.276 37.0902 73.08 36.6902 73.08C36.5222 73.08 36.3862 73.112 36.2782 73.184C36.1582 73.26 36.0822 73.368 36.0502 73.512L35.8142 73.496C35.8542 73.288 35.9582 73.128 36.1262 73.024C36.2742 72.924 36.4662 72.876 36.7022 72.876ZM37.2902 73.98L36.7742 73.988C36.2502 73.992 35.9902 74.16 35.9902 74.488C35.9902 74.6 36.0342 74.688 36.1222 74.756C36.2102 74.824 36.3302 74.86 36.4742 74.86C36.6822 74.86 36.8742 74.788 37.0422 74.644C37.2062 74.508 37.2902 74.356 37.2902 74.196V73.98ZM38.8733 72.876C39.2013 72.876 39.4173 73.016 39.5213 73.3C39.5933 73.16 39.6853 73.056 39.7973 72.984C39.9013 72.912 40.0293 72.876 40.1733 72.876C40.3893 72.876 40.5653 72.944 40.6933 73.08C40.8173 73.216 40.8813 73.404 40.8813 73.648V75H40.6413V73.68C40.6413 73.484 40.6013 73.336 40.5213 73.24C40.4333 73.136 40.2933 73.084 40.1093 73.084C39.9573 73.084 39.8333 73.14 39.7333 73.256C39.6293 73.368 39.5813 73.508 39.5813 73.684V75H39.3373V73.68C39.3373 73.28 39.1653 73.084 38.8213 73.084C38.6653 73.084 38.5373 73.144 38.4333 73.272C38.3253 73.396 38.2733 73.548 38.2733 73.728V75H38.0333V72.932H38.2733V73.244C38.4213 72.996 38.6213 72.876 38.8733 72.876ZM41.6248 72.188C41.6808 72.188 41.7288 72.208 41.7688 72.248C41.8088 72.28 41.8288 72.328 41.8288 72.388C41.8288 72.444 41.8048 72.492 41.7648 72.532C41.7248 72.568 41.6808 72.588 41.6248 72.588C41.5648 72.588 41.5168 72.568 41.4808 72.532C41.4408 72.492 41.4208 72.444 41.4208 72.388C41.4208 72.328 41.4408 72.28 41.4808 72.248C41.5168 72.208 41.5648 72.188 41.6248 72.188ZM41.5048 72.932H41.7448V75H41.5048V72.932ZM43.2812 72.876C43.7932 72.876 44.0492 73.16 44.0492 73.728V75H43.8092V73.744C43.8092 73.304 43.6132 73.084 43.2212 73.084C43.0532 73.084 42.9172 73.144 42.8052 73.264C42.6852 73.384 42.6212 73.548 42.6092 73.752V75H42.3692V72.932H42.6092V73.272C42.6812 73.148 42.7732 73.052 42.8892 72.98C43.0052 72.908 43.1372 72.876 43.2812 72.876ZM45.3888 72.876C45.7168 72.876 45.9608 72.984 46.1248 73.208C46.2688 73.404 46.3488 73.68 46.3608 74.036H44.6808C44.6928 74.288 44.7608 74.488 44.8848 74.632C45.0128 74.776 45.1808 74.848 45.3968 74.848C45.5848 74.848 45.7368 74.796 45.8528 74.7C45.9488 74.616 46.0208 74.496 46.0728 74.336H46.3168C46.2688 74.536 46.1768 74.7 46.0408 74.828C45.8728 74.98 45.6608 75.056 45.3968 75.056C45.1048 75.056 44.8728 74.956 44.7008 74.76C44.5208 74.56 44.4328 74.292 44.4328 73.964C44.4328 73.66 44.5168 73.408 44.6888 73.2C44.8648 72.984 45.0968 72.876 45.3888 72.876ZM45.3928 73.084C45.1888 73.084 45.0248 73.152 44.9008 73.296C44.7768 73.436 44.7048 73.616 44.6848 73.84H46.1088C46.0688 73.336 45.8288 73.084 45.3928 73.084ZM47.6122 72.876C47.7322 72.876 47.8322 72.888 47.9122 72.92V73.164C47.8042 73.132 47.7002 73.12 47.5962 73.12C47.4122 73.12 47.2602 73.2 47.1482 73.368C47.0362 73.52 46.9842 73.7 46.9842 73.908V75H46.7442V72.932H46.9842V73.328C47.0402 73.2 47.1162 73.096 47.2122 73.02C47.3242 72.924 47.4602 72.876 47.6122 72.876Z" fill="white" fill-opacity="0.8"/>
<path d="M25.92 32.704C30.4 32.704 32.928 34.784 33.504 38.944H29.856C29.408 36.832 28.064 35.776 25.888 35.776C24.352 35.776 23.136 36.512 22.24 38.016C21.344 39.424 20.928 41.184 20.928 43.296V43.584H21.088C21.728 42.624 22.528 41.952 23.488 41.504C24.384 41.056 25.408 40.864 26.56 40.864C28.8 40.864 30.592 41.568 31.936 43.008C33.28 44.448 33.952 46.304 33.952 48.544C33.952 50.848 33.152 52.736 31.616 54.208C30.08 55.68 28.16 56.448 25.888 56.448C23.072 56.448 20.928 55.424 19.456 53.408C17.984 51.424 17.28 48.704 17.28 45.216C17.28 41.472 18.048 38.464 19.616 36.16C21.152 33.856 23.264 32.704 25.92 32.704ZM25.76 43.904C24.352 43.904 23.264 44.32 22.496 45.184C21.696 46.016 21.312 47.2 21.312 48.672C21.312 50.112 21.728 51.264 22.56 52.096C23.392 52.928 24.448 53.344 25.76 53.344C27.104 53.344 28.16 52.896 28.992 52C29.824 51.104 30.24 49.952 30.24 48.544C30.24 47.136 29.824 46.016 29.056 45.184C28.224 44.32 27.136 43.904 25.76 43.904ZM39.5715 51.168C40.2755 51.168 40.8515 51.392 41.3635 51.904C41.8435 52.384 42.0995 52.992 42.0995 53.696C42.0995 54.4 41.8435 54.976 41.3635 55.488C40.8515 55.936 40.2755 56.192 39.5715 56.192C38.8675 56.192 38.2595 55.936 37.8115 55.488C37.2995 54.976 37.0755 54.4 37.0755 53.696C37.0755 52.992 37.2995 52.384 37.8115 51.904C38.2595 51.392 38.8675 51.168 39.5715 51.168ZM46.944 33.152H60.864V36.448H49.952L49.312 42.72H49.408C50.112 42.016 50.912 41.504 51.84 41.184C52.672 40.864 53.6 40.704 54.624 40.704C56.768 40.704 58.528 41.408 59.872 42.816C61.216 44.224 61.92 46.176 61.92 48.64C61.92 51.008 61.024 52.928 59.232 54.432C57.568 55.776 55.616 56.448 53.344 56.448C51.264 56.448 49.472 55.872 48 54.752C46.336 53.504 45.44 51.808 45.28 49.696H48.96C49.12 50.944 49.6 51.872 50.432 52.48C51.136 52.992 52.128 53.28 53.376 53.28C54.72 53.28 55.872 52.864 56.8 52.032C57.696 51.2 58.176 50.08 58.176 48.672C58.176 47.136 57.76 45.92 56.992 45.056C56.224 44.16 55.072 43.744 53.6 43.744C52.608 43.744 51.744 43.904 51.04 44.256C50.24 44.64 49.632 45.216 49.184 46.016H45.696L46.944 33.152Z" fill="white"/>
<defs>
<linearGradient id="paint0_linear_90_1400" x1="60.24" y1="4.4" x2="16.24" y2="84.48" gradientUnits="userSpaceOnUse">
<stop stop-color="#362D7A"/>
<stop offset="0.615385" stop-color="#211A54"/>
<stop offset="1" stop-color="#140E3C"/>
</linearGradient>
</defs>
</svg>
