<svg width="222" height="196" viewBox="0 0 222 196" fill="none" xmlns="http://www.w3.org/2000/svg">
<path d="M13.99 9.25L26.99 16.75V31.75L13.99 39.25L1 31.75V16.75L13.99 9.25ZM3 17.9V30.6L13.99 36.94L24.99 30.59V17.9L13.99 11.56L3 17.9ZM0 15L12.98 7.5V0H10.98V6.35L0 12.69V15ZM0 33.5L12.98 41V49H10.98V42.15L0 35.81V33.5ZM15 0V7.5L27.99 15H28V12.69H27.99L17 6.35V0H15ZM15 49V41L27.99 33.5H28V35.81H27.99L17 42.15V49H15Z" fill="url(#paint0_radial_103_2497)"/>
<path d="M13.99 58.25L26.99 65.75V80.75L13.99 88.25L1 80.75V65.75L13.99 58.25ZM3 66.9V79.6L13.99 85.94L24.99 79.59V66.9L13.99 60.56L3 66.9ZM0 64L12.98 56.5V49H10.98V55.35L0 61.69V64ZM0 82.5L12.98 90V98H10.98V91.15L0 84.81V82.5ZM15 49V56.5L27.99 64H28V61.69H27.99L17 55.35V49H15ZM15 98V90L27.99 82.5H28V84.81H27.99L17 91.15V98H15Z" fill="url(#paint1_radial_103_2497)"/>
<path d="M40.99 9.25L53.99 16.75V31.75L40.99 39.25L28 31.75V16.75L40.99 9.25ZM30 17.9V30.6L40.99 36.94L51.99 30.59V17.9L40.99 11.56L30 17.9ZM27 15L39.98 7.5V0H37.98V6.35L27 12.69V15ZM27 33.5L39.98 41V49H37.98V42.15L27 35.81V33.5ZM42 0V7.5L54.99 15H55V12.69H54.99L44 6.35V0H42ZM42 49V41L54.99 33.5H55V35.81H54.99L44 42.15V49H42Z" fill="url(#paint2_radial_103_2497)"/>
<path d="M40.99 58.25L53.99 65.75V80.75L40.99 88.25L28 80.75V65.75L40.99 58.25ZM30 66.9V79.6L40.99 85.94L51.99 79.59V66.9L40.99 60.56L30 66.9ZM27 64L39.98 56.5V49H37.98V55.35L27 61.69V64ZM27 82.5L39.98 90V98H37.98V91.15L27 84.81V82.5ZM42 49V56.5L54.99 64H55V61.69H54.99L44 55.35V49H42ZM42 98V90L54.99 82.5H55V84.81H54.99L44 91.15V98H42Z" fill="url(#paint3_radial_103_2497)"/>
<path d="M68.99 58.25L81.99 65.75V80.75L68.99 88.25L56 80.75V65.75L68.99 58.25ZM58 66.9V79.6L68.99 85.94L79.99 79.59V66.9L68.99 60.56L58 66.9ZM55 64L67.98 56.5V49H65.98V55.35L55 61.69V64ZM55 82.5L67.98 90V98H65.98V91.15L55 84.81V82.5ZM70 49V56.5L82.99 64H83V61.69H82.99L72 55.35V49H70ZM70 98V90L82.99 82.5H83V84.81H82.99L72 91.15V98H70Z" fill="url(#paint4_radial_103_2497)"/>
<path d="M96.99 58.25L109.99 65.75V80.75L96.99 88.25L84 80.75V65.75L96.99 58.25ZM86 66.9V79.6L96.99 85.94L107.99 79.59V66.9L96.99 60.56L86 66.9ZM83 64L95.98 56.5V49H93.98V55.35L83 61.69V64ZM83 82.5L95.98 90V98H93.98V91.15L83 84.81V82.5ZM98 49V56.5L110.99 64H111V61.69H110.99L100 55.35V49H98ZM98 98V90L110.99 82.5H111V84.81H110.99L100 91.15V98H98Z" fill="url(#paint5_radial_103_2497)"/>
<path d="M96.99 9.25L109.99 16.75V31.75L96.99 39.25L84 31.75V16.75L96.99 9.25ZM86 17.9V30.6L96.99 36.94L107.99 30.59V17.9L96.99 11.56L86 17.9ZM83 15L95.98 7.5V0H93.98V6.35L83 12.69V15ZM83 33.5L95.98 41V49H93.98V42.15L83 35.81V33.5ZM98 0V7.5L110.99 15H111V12.69H110.99L100 6.35V0H98ZM98 49V41L110.99 33.5H111V35.81H110.99L100 42.15V49H98Z" fill="url(#paint6_radial_103_2497)"/>
<path d="M68.99 9.25L81.99 16.75V31.75L68.99 39.25L56 31.75V16.75L68.99 9.25ZM58 17.9V30.6L68.99 36.94L79.99 30.59V17.9L68.99 11.56L58 17.9ZM55 15L67.98 7.5V0H65.98V6.35L55 12.69V15ZM55 33.5L67.98 41V49H65.98V42.15L55 35.81V33.5ZM70 0V7.5L82.99 15H83V12.69H82.99L72 6.35V0H70ZM70 49V41L82.99 33.5H83V35.81H82.99L72 42.15V49H70Z" fill="url(#paint7_radial_103_2497)"/>
<path d="M124.99 9.25L137.99 16.75V31.75L124.99 39.25L112 31.75V16.75L124.99 9.25ZM114 17.9V30.6L124.99 36.94L135.99 30.59V17.9L124.99 11.56L114 17.9ZM111 15L123.98 7.5V0H121.98V6.35L111 12.69V15ZM111 33.5L123.98 41V49H121.98V42.15L111 35.81V33.5ZM126 0V7.5L138.99 15H139V12.69H138.99L128 6.35V0H126ZM126 49V41L138.99 33.5H139V35.81H138.99L128 42.15V49H126Z" fill="url(#paint8_radial_103_2497)"/>
<path d="M124.99 58.25L137.99 65.75V80.75L124.99 88.25L112 80.75V65.75L124.99 58.25ZM114 66.9V79.6L124.99 85.94L135.99 79.59V66.9L124.99 60.56L114 66.9ZM111 64L123.98 56.5V49H121.98V55.35L111 61.69V64ZM111 82.5L123.98 90V98H121.98V91.15L111 84.81V82.5ZM126 49V56.5L138.99 64H139V61.69H138.99L128 55.35V49H126ZM126 98V90L138.99 82.5H139V84.81H138.99L128 91.15V98H126Z" fill="url(#paint9_radial_103_2497)"/>
<path d="M151.99 9.25L164.99 16.75V31.75L151.99 39.25L139 31.75V16.75L151.99 9.25ZM141 17.9V30.6L151.99 36.94L162.99 30.59V17.9L151.99 11.56L141 17.9ZM138 15L150.98 7.5V0H148.98V6.35L138 12.69V15ZM138 33.5L150.98 41V49H148.98V42.15L138 35.81V33.5ZM153 0V7.5L165.99 15H166V12.69H165.99L155 6.35V0H153ZM153 49V41L165.99 33.5H166V35.81H165.99L155 42.15V49H153Z" fill="url(#paint10_radial_103_2497)"/>
<path d="M151.99 58.25L164.99 65.75V80.75L151.99 88.25L139 80.75V65.75L151.99 58.25ZM141 66.9V79.6L151.99 85.94L162.99 79.59V66.9L151.99 60.56L141 66.9ZM138 64L150.98 56.5V49H148.98V55.35L138 61.69V64ZM138 82.5L150.98 90V98H148.98V91.15L138 84.81V82.5ZM153 49V56.5L165.99 64H166V61.69H165.99L155 55.35V49H153ZM153 98V90L165.99 82.5H166V84.81H165.99L155 91.15V98H153Z" fill="url(#paint11_radial_103_2497)"/>
<path d="M179.99 58.25L192.99 65.75V80.75L179.99 88.25L167 80.75V65.75L179.99 58.25ZM169 66.9V79.6L179.99 85.94L190.99 79.59V66.9L179.99 60.56L169 66.9ZM166 64L178.98 56.5V49H176.98V55.35L166 61.69V64ZM166 82.5L178.98 90V98H176.98V91.15L166 84.81V82.5ZM181 49V56.5L193.99 64H194V61.69H193.99L183 55.35V49H181ZM181 98V90L193.99 82.5H194V84.81H193.99L183 91.15V98H181Z" fill="url(#paint12_radial_103_2497)"/>
<path d="M207.99 58.25L220.99 65.75V80.75L207.99 88.25L195 80.75V65.75L207.99 58.25ZM197 66.9V79.6L207.99 85.94L218.99 79.59V66.9L207.99 60.56L197 66.9ZM194 64L206.98 56.5V49H204.98V55.35L194 61.69V64ZM194 82.5L206.98 90V98H204.98V91.15L194 84.81V82.5ZM209 49V56.5L221.99 64H222V61.69H221.99L211 55.35V49H209ZM209 98V90L221.99 82.5H222V84.81H221.99L211 91.15V98H209Z" fill="url(#paint13_radial_103_2497)"/>
<path d="M207.99 9.25L220.99 16.75V31.75L207.99 39.25L195 31.75V16.75L207.99 9.25ZM197 17.9V30.6L207.99 36.94L218.99 30.59V17.9L207.99 11.56L197 17.9ZM194 15L206.98 7.5V0H204.98V6.35L194 12.69V15ZM194 33.5L206.98 41V49H204.98V42.15L194 35.81V33.5ZM209 0V7.5L221.99 15H222V12.69H221.99L211 6.35V0H209ZM209 49V41L221.99 33.5H222V35.81H221.99L211 42.15V49H209Z" fill="url(#paint14_radial_103_2497)"/>
<path d="M179.99 9.25L192.99 16.75V31.75L179.99 39.25L167 31.75V16.75L179.99 9.25ZM169 17.9V30.6L179.99 36.94L190.99 30.59V17.9L179.99 11.56L169 17.9ZM166 15L178.98 7.5V0H176.98V6.35L166 12.69V15ZM166 33.5L178.98 41V49H176.98V42.15L166 35.81V33.5ZM181 0V7.5L193.99 15H194V12.69H193.99L183 6.35V0H181ZM181 49V41L193.99 33.5H194V35.81H193.99L183 42.15V49H181Z" fill="url(#paint15_radial_103_2497)"/>
<path d="M124.99 107.25L137.99 114.75V129.75L124.99 137.25L112 129.75V114.75L124.99 107.25ZM114 115.9V128.6L124.99 134.94L135.99 128.59V115.9L124.99 109.56L114 115.9ZM111 113L123.98 105.5V98H121.98V104.35L111 110.69V113ZM111 131.5L123.98 139V147H121.98V140.15L111 133.81V131.5ZM126 98V105.5L138.99 113H139V110.69H138.99L128 104.35V98H126ZM126 147V139L138.99 131.5H139V133.81H138.99L128 140.15V147H126Z" fill="url(#paint16_radial_103_2497)"/>
<path d="M124.99 156.25L137.99 163.75V178.75L124.99 186.25L112 178.75V163.75L124.99 156.25ZM114 164.9V177.6L124.99 183.94L135.99 177.59V164.9L124.99 158.56L114 164.9ZM111 162L123.98 154.5V147H121.98V153.35L111 159.69V162ZM111 180.5L123.98 188V196H121.98V189.15L111 182.81V180.5ZM126 147V154.5L138.99 162H139V159.69H138.99L128 153.35V147H126ZM126 196V188L138.99 180.5H139V182.81H138.99L128 189.15V196H126Z" fill="url(#paint17_radial_103_2497)"/>
<path d="M151.99 107.25L164.99 114.75V129.75L151.99 137.25L139 129.75V114.75L151.99 107.25ZM141 115.9V128.6L151.99 134.94L162.99 128.59V115.9L151.99 109.56L141 115.9ZM138 113L150.98 105.5V98H148.98V104.35L138 110.69V113ZM138 131.5L150.98 139V147H148.98V140.15L138 133.81V131.5ZM153 98V105.5L165.99 113H166V110.69H165.99L155 104.35V98H153ZM153 147V139L165.99 131.5H166V133.81H165.99L155 140.15V147H153Z" fill="url(#paint18_radial_103_2497)"/>
<path d="M151.99 156.25L164.99 163.75V178.75L151.99 186.25L139 178.75V163.75L151.99 156.25ZM141 164.9V177.6L151.99 183.94L162.99 177.59V164.9L151.99 158.56L141 164.9ZM138 162L150.98 154.5V147H148.98V153.35L138 159.69V162ZM138 180.5L150.98 188V196H148.98V189.15L138 182.81V180.5ZM153 147V154.5L165.99 162H166V159.69H165.99L155 153.35V147H153ZM153 196V188L165.99 180.5H166V182.81H165.99L155 189.15V196H153Z" fill="url(#paint19_radial_103_2497)"/>
<path d="M179.99 156.25L192.99 163.75V178.75L179.99 186.25L167 178.75V163.75L179.99 156.25ZM169 164.9V177.6L179.99 183.94L190.99 177.59V164.9L179.99 158.56L169 164.9ZM166 162L178.98 154.5V147H176.98V153.35L166 159.69V162ZM166 180.5L178.98 188V196H176.98V189.15L166 182.81V180.5ZM181 147V154.5L193.99 162H194V159.69H193.99L183 153.35V147H181ZM181 196V188L193.99 180.5H194V182.81H193.99L183 189.15V196H181Z" fill="url(#paint20_radial_103_2497)"/>
<path d="M207.99 156.25L220.99 163.75V178.75L207.99 186.25L195 178.75V163.75L207.99 156.25ZM197 164.9V177.6L207.99 183.94L218.99 177.59V164.9L207.99 158.56L197 164.9ZM194 162L206.98 154.5V147H204.98V153.35L194 159.69V162ZM194 180.5L206.98 188V196H204.98V189.15L194 182.81V180.5ZM209 147V154.5L221.99 162H222V159.69H221.99L211 153.35V147H209ZM209 196V188L221.99 180.5H222V182.81H221.99L211 189.15V196H209Z" fill="url(#paint21_radial_103_2497)"/>
<path d="M207.99 107.25L220.99 114.75V129.75L207.99 137.25L195 129.75V114.75L207.99 107.25ZM197 115.9V128.6L207.99 134.94L218.99 128.59V115.9L207.99 109.56L197 115.9ZM194 113L206.98 105.5V98H204.98V104.35L194 110.69V113ZM194 131.5L206.98 139V147H204.98V140.15L194 133.81V131.5ZM209 98V105.5L221.99 113H222V110.69H221.99L211 104.35V98H209ZM209 147V139L221.99 131.5H222V133.81H221.99L211 140.15V147H209Z" fill="url(#paint22_radial_103_2497)"/>
<path d="M179.99 107.25L192.99 114.75V129.75L179.99 137.25L167 129.75V114.75L179.99 107.25ZM169 115.9V128.6L179.99 134.94L190.99 128.59V115.9L179.99 109.56L169 115.9ZM166 113L178.98 105.5V98H176.98V104.35L166 110.69V113ZM166 131.5L178.98 139V147H176.98V140.15L166 133.81V131.5ZM181 98V105.5L193.99 113H194V110.69H193.99L183 104.35V98H181ZM181 147V139L193.99 131.5H194V133.81H193.99L183 140.15V147H181Z" fill="url(#paint23_radial_103_2497)"/>
<path d="M13.99 107.25L26.99 114.75V129.75L13.99 137.25L1 129.75V114.75L13.99 107.25ZM3 115.9V128.6L13.99 134.94L24.99 128.59V115.9L13.99 109.56L3 115.9ZM0 113L12.98 105.5V98H10.98V104.35L0 110.69V113ZM0 131.5L12.98 139V147H10.98V140.15L0 133.81V131.5ZM15 98V105.5L27.99 113H28V110.69H27.99L17 104.35V98H15ZM15 147V139L27.99 131.5H28V133.81H27.99L17 140.15V147H15Z" fill="url(#paint24_radial_103_2497)"/>
<path d="M13.99 156.25L26.99 163.75V178.75L13.99 186.25L1 178.75V163.75L13.99 156.25ZM3 164.9V177.6L13.99 183.94L24.99 177.59V164.9L13.99 158.56L3 164.9ZM0 162L12.98 154.5V147H10.98V153.35L0 159.69V162ZM0 180.5L12.98 188V196H10.98V189.15L0 182.81V180.5ZM15 147V154.5L27.99 162H28V159.69H27.99L17 153.35V147H15ZM15 196V188L27.99 180.5H28V182.81H27.99L17 189.15V196H15Z" fill="url(#paint25_radial_103_2497)"/>
<path d="M40.99 107.25L53.99 114.75V129.75L40.99 137.25L28 129.75V114.75L40.99 107.25ZM30 115.9V128.6L40.99 134.94L51.99 128.59V115.9L40.99 109.56L30 115.9ZM27 113L39.98 105.5V98H37.98V104.35L27 110.69V113ZM27 131.5L39.98 139V147H37.98V140.15L27 133.81V131.5ZM42 98V105.5L54.99 113H55V110.69H54.99L44 104.35V98H42ZM42 147V139L54.99 131.5H55V133.81H54.99L44 140.15V147H42Z" fill="url(#paint26_radial_103_2497)"/>
<path d="M40.99 156.25L53.99 163.75V178.75L40.99 186.25L28 178.75V163.75L40.99 156.25ZM30 164.9V177.6L40.99 183.94L51.99 177.59V164.9L40.99 158.56L30 164.9ZM27 162L39.98 154.5V147H37.98V153.35L27 159.69V162ZM27 180.5L39.98 188V196H37.98V189.15L27 182.81V180.5ZM42 147V154.5L54.99 162H55V159.69H54.99L44 153.35V147H42ZM42 196V188L54.99 180.5H55V182.81H54.99L44 189.15V196H42Z" fill="url(#paint27_radial_103_2497)"/>
<path d="M68.99 156.25L81.99 163.75V178.75L68.99 186.25L56 178.75V163.75L68.99 156.25ZM58 164.9V177.6L68.99 183.94L79.99 177.59V164.9L68.99 158.56L58 164.9ZM55 162L67.98 154.5V147H65.98V153.35L55 159.69V162ZM55 180.5L67.98 188V196H65.98V189.15L55 182.81V180.5ZM70 147V154.5L82.99 162H83V159.69H82.99L72 153.35V147H70ZM70 196V188L82.99 180.5H83V182.81H82.99L72 189.15V196H70Z" fill="url(#paint28_radial_103_2497)"/>
<path d="M96.99 156.25L109.99 163.75V178.75L96.99 186.25L84 178.75V163.75L96.99 156.25ZM86 164.9V177.6L96.99 183.94L107.99 177.59V164.9L96.99 158.56L86 164.9ZM83 162L95.98 154.5V147H93.98V153.35L83 159.69V162ZM83 180.5L95.98 188V196H93.98V189.15L83 182.81V180.5ZM98 147V154.5L110.99 162H111V159.69H110.99L100 153.35V147H98ZM98 196V188L110.99 180.5H111V182.81H110.99L100 189.15V196H98Z" fill="url(#paint29_radial_103_2497)"/>
<path d="M96.99 107.25L109.99 114.75V129.75L96.99 137.25L84 129.75V114.75L96.99 107.25ZM86 115.9V128.6L96.99 134.94L107.99 128.59V115.9L96.99 109.56L86 115.9ZM83 113L95.98 105.5V98H93.98V104.35L83 110.69V113ZM83 131.5L95.98 139V147H93.98V140.15L83 133.81V131.5ZM98 98V105.5L110.99 113H111V110.69H110.99L100 104.35V98H98ZM98 147V139L110.99 131.5H111V133.81H110.99L100 140.15V147H98Z" fill="url(#paint30_radial_103_2497)"/>
<path d="M68.99 107.25L81.99 114.75V129.75L68.99 137.25L56 129.75V114.75L68.99 107.25ZM58 115.9V128.6L68.99 134.94L79.99 128.59V115.9L68.99 109.56L58 115.9ZM55 113L67.98 105.5V98H65.98V104.35L55 110.69V113ZM55 131.5L67.98 139V147H65.98V140.15L55 133.81V131.5ZM70 98V105.5L82.99 113H83V110.69H82.99L72 104.35V98H70ZM70 147V139L82.99 131.5H83V133.81H82.99L72 140.15V147H70Z" fill="url(#paint31_radial_103_2497)"/>
<defs>
<radialGradient id="paint0_radial_103_2497" cx="0" cy="0" r="1" gradientUnits="userSpaceOnUse" gradientTransform="translate(111 98) rotate(90) scale(112.5 127.423)">
<stop stop-color="white" stop-opacity="0.1"/>
<stop offset="1" stop-color="white" stop-opacity="0"/>
</radialGradient>
<radialGradient id="paint1_radial_103_2497" cx="0" cy="0" r="1" gradientUnits="userSpaceOnUse" gradientTransform="translate(111 98) rotate(90) scale(112.5 127.423)">
<stop stop-color="white" stop-opacity="0.1"/>
<stop offset="1" stop-color="white" stop-opacity="0"/>
</radialGradient>
<radialGradient id="paint2_radial_103_2497" cx="0" cy="0" r="1" gradientUnits="userSpaceOnUse" gradientTransform="translate(111 98) rotate(90) scale(112.5 127.423)">
<stop stop-color="white" stop-opacity="0.1"/>
<stop offset="1" stop-color="white" stop-opacity="0"/>
</radialGradient>
<radialGradient id="paint3_radial_103_2497" cx="0" cy="0" r="1" gradientUnits="userSpaceOnUse" gradientTransform="translate(111 98) rotate(90) scale(112.5 127.423)">
<stop stop-color="white" stop-opacity="0.1"/>
<stop offset="1" stop-color="white" stop-opacity="0"/>
</radialGradient>
<radialGradient id="paint4_radial_103_2497" cx="0" cy="0" r="1" gradientUnits="userSpaceOnUse" gradientTransform="translate(111 98) rotate(90) scale(112.5 127.423)">
<stop stop-color="white" stop-opacity="0.1"/>
<stop offset="1" stop-color="white" stop-opacity="0"/>
</radialGradient>
<radialGradient id="paint5_radial_103_2497" cx="0" cy="0" r="1" gradientUnits="userSpaceOnUse" gradientTransform="translate(111 98) rotate(90) scale(112.5 127.423)">
<stop stop-color="white" stop-opacity="0.1"/>
<stop offset="1" stop-color="white" stop-opacity="0"/>
</radialGradient>
<radialGradient id="paint6_radial_103_2497" cx="0" cy="0" r="1" gradientUnits="userSpaceOnUse" gradientTransform="translate(111 98) rotate(90) scale(112.5 127.423)">
<stop stop-color="white" stop-opacity="0.1"/>
<stop offset="1" stop-color="white" stop-opacity="0"/>
</radialGradient>
<radialGradient id="paint7_radial_103_2497" cx="0" cy="0" r="1" gradientUnits="userSpaceOnUse" gradientTransform="translate(111 98) rotate(90) scale(112.5 127.423)">
<stop stop-color="white" stop-opacity="0.1"/>
<stop offset="1" stop-color="white" stop-opacity="0"/>
</radialGradient>
<radialGradient id="paint8_radial_103_2497" cx="0" cy="0" r="1" gradientUnits="userSpaceOnUse" gradientTransform="translate(111 98) rotate(90) scale(112.5 127.423)">
<stop stop-color="white" stop-opacity="0.1"/>
<stop offset="1" stop-color="white" stop-opacity="0"/>
</radialGradient>
<radialGradient id="paint9_radial_103_2497" cx="0" cy="0" r="1" gradientUnits="userSpaceOnUse" gradientTransform="translate(111 98) rotate(90) scale(112.5 127.423)">
<stop stop-color="white" stop-opacity="0.1"/>
<stop offset="1" stop-color="white" stop-opacity="0"/>
</radialGradient>
<radialGradient id="paint10_radial_103_2497" cx="0" cy="0" r="1" gradientUnits="userSpaceOnUse" gradientTransform="translate(111 98) rotate(90) scale(112.5 127.423)">
<stop stop-color="white" stop-opacity="0.1"/>
<stop offset="1" stop-color="white" stop-opacity="0"/>
</radialGradient>
<radialGradient id="paint11_radial_103_2497" cx="0" cy="0" r="1" gradientUnits="userSpaceOnUse" gradientTransform="translate(111 98) rotate(90) scale(112.5 127.423)">
<stop stop-color="white" stop-opacity="0.1"/>
<stop offset="1" stop-color="white" stop-opacity="0"/>
</radialGradient>
<radialGradient id="paint12_radial_103_2497" cx="0" cy="0" r="1" gradientUnits="userSpaceOnUse" gradientTransform="translate(111 98) rotate(90) scale(112.5 127.423)">
<stop stop-color="white" stop-opacity="0.1"/>
<stop offset="1" stop-color="white" stop-opacity="0"/>
</radialGradient>
<radialGradient id="paint13_radial_103_2497" cx="0" cy="0" r="1" gradientUnits="userSpaceOnUse" gradientTransform="translate(111 98) rotate(90) scale(112.5 127.423)">
<stop stop-color="white" stop-opacity="0.1"/>
<stop offset="1" stop-color="white" stop-opacity="0"/>
</radialGradient>
<radialGradient id="paint14_radial_103_2497" cx="0" cy="0" r="1" gradientUnits="userSpaceOnUse" gradientTransform="translate(111 98) rotate(90) scale(112.5 127.423)">
<stop stop-color="white" stop-opacity="0.1"/>
<stop offset="1" stop-color="white" stop-opacity="0"/>
</radialGradient>
<radialGradient id="paint15_radial_103_2497" cx="0" cy="0" r="1" gradientUnits="userSpaceOnUse" gradientTransform="translate(111 98) rotate(90) scale(112.5 127.423)">
<stop stop-color="white" stop-opacity="0.1"/>
<stop offset="1" stop-color="white" stop-opacity="0"/>
</radialGradient>
<radialGradient id="paint16_radial_103_2497" cx="0" cy="0" r="1" gradientUnits="userSpaceOnUse" gradientTransform="translate(111 98) rotate(90) scale(112.5 127.423)">
<stop stop-color="white" stop-opacity="0.1"/>
<stop offset="1" stop-color="white" stop-opacity="0"/>
</radialGradient>
<radialGradient id="paint17_radial_103_2497" cx="0" cy="0" r="1" gradientUnits="userSpaceOnUse" gradientTransform="translate(111 98) rotate(90) scale(112.5 127.423)">
<stop stop-color="white" stop-opacity="0.1"/>
<stop offset="1" stop-color="white" stop-opacity="0"/>
</radialGradient>
<radialGradient id="paint18_radial_103_2497" cx="0" cy="0" r="1" gradientUnits="userSpaceOnUse" gradientTransform="translate(111 98) rotate(90) scale(112.5 127.423)">
<stop stop-color="white" stop-opacity="0.1"/>
<stop offset="1" stop-color="white" stop-opacity="0"/>
</radialGradient>
<radialGradient id="paint19_radial_103_2497" cx="0" cy="0" r="1" gradientUnits="userSpaceOnUse" gradientTransform="translate(111 98) rotate(90) scale(112.5 127.423)">
<stop stop-color="white" stop-opacity="0.1"/>
<stop offset="1" stop-color="white" stop-opacity="0"/>
</radialGradient>
<radialGradient id="paint20_radial_103_2497" cx="0" cy="0" r="1" gradientUnits="userSpaceOnUse" gradientTransform="translate(111 98) rotate(90) scale(112.5 127.423)">
<stop stop-color="white" stop-opacity="0.1"/>
<stop offset="1" stop-color="white" stop-opacity="0"/>
</radialGradient>
<radialGradient id="paint21_radial_103_2497" cx="0" cy="0" r="1" gradientUnits="userSpaceOnUse" gradientTransform="translate(111 98) rotate(90) scale(112.5 127.423)">
<stop stop-color="white" stop-opacity="0.1"/>
<stop offset="1" stop-color="white" stop-opacity="0"/>
</radialGradient>
<radialGradient id="paint22_radial_103_2497" cx="0" cy="0" r="1" gradientUnits="userSpaceOnUse" gradientTransform="translate(111 98) rotate(90) scale(112.5 127.423)">
<stop stop-color="white" stop-opacity="0.1"/>
<stop offset="1" stop-color="white" stop-opacity="0"/>
</radialGradient>
<radialGradient id="paint23_radial_103_2497" cx="0" cy="0" r="1" gradientUnits="userSpaceOnUse" gradientTransform="translate(111 98) rotate(90) scale(112.5 127.423)">
<stop stop-color="white" stop-opacity="0.1"/>
<stop offset="1" stop-color="white" stop-opacity="0"/>
</radialGradient>
<radialGradient id="paint24_radial_103_2497" cx="0" cy="0" r="1" gradientUnits="userSpaceOnUse" gradientTransform="translate(111 98) rotate(90) scale(112.5 127.423)">
<stop stop-color="white" stop-opacity="0.1"/>
<stop offset="1" stop-color="white" stop-opacity="0"/>
</radialGradient>
<radialGradient id="paint25_radial_103_2497" cx="0" cy="0" r="1" gradientUnits="userSpaceOnUse" gradientTransform="translate(111 98) rotate(90) scale(112.5 127.423)">
<stop stop-color="white" stop-opacity="0.1"/>
<stop offset="1" stop-color="white" stop-opacity="0"/>
</radialGradient>
<radialGradient id="paint26_radial_103_2497" cx="0" cy="0" r="1" gradientUnits="userSpaceOnUse" gradientTransform="translate(111 98) rotate(90) scale(112.5 127.423)">
<stop stop-color="white" stop-opacity="0.1"/>
<stop offset="1" stop-color="white" stop-opacity="0"/>
</radialGradient>
<radialGradient id="paint27_radial_103_2497" cx="0" cy="0" r="1" gradientUnits="userSpaceOnUse" gradientTransform="translate(111 98) rotate(90) scale(112.5 127.423)">
<stop stop-color="white" stop-opacity="0.1"/>
<stop offset="1" stop-color="white" stop-opacity="0"/>
</radialGradient>
<radialGradient id="paint28_radial_103_2497" cx="0" cy="0" r="1" gradientUnits="userSpaceOnUse" gradientTransform="translate(111 98) rotate(90) scale(112.5 127.423)">
<stop stop-color="white" stop-opacity="0.1"/>
<stop offset="1" stop-color="white" stop-opacity="0"/>
</radialGradient>
<radialGradient id="paint29_radial_103_2497" cx="0" cy="0" r="1" gradientUnits="userSpaceOnUse" gradientTransform="translate(111 98) rotate(90) scale(112.5 127.423)">
<stop stop-color="white" stop-opacity="0.1"/>
<stop offset="1" stop-color="white" stop-opacity="0"/>
</radialGradient>
<radialGradient id="paint30_radial_103_2497" cx="0" cy="0" r="1" gradientUnits="userSpaceOnUse" gradientTransform="translate(111 98) rotate(90) scale(112.5 127.423)">
<stop stop-color="white" stop-opacity="0.1"/>
<stop offset="1" stop-color="white" stop-opacity="0"/>
</radialGradient>
<radialGradient id="paint31_radial_103_2497" cx="0" cy="0" r="1" gradientUnits="userSpaceOnUse" gradientTransform="translate(111 98) rotate(90) scale(112.5 127.423)">
<stop stop-color="white" stop-opacity="0.1"/>
<stop offset="1" stop-color="white" stop-opacity="0"/>
</radialGradient>
</defs>
</svg>
