<svg width="325" height="198" viewBox="0 0 325 198" fill="none" xmlns="http://www.w3.org/2000/svg">
<g clip-path="url(#clip0_103_2372)">
<rect width="325" height="198" rx="10" fill="#34316E"/>
<path d="M57.99 -11.75L70.99 -4.25V10.75L57.99 18.25L45 10.75V-4.25L57.99 -11.75ZM47 -3.1V9.6L57.99 15.94L68.99 9.59V-3.1L57.99 -9.44L47 -3.1ZM44 -6L56.98 -13.5V-21H54.98V-14.65L44 -8.31V-6ZM44 12.5L56.98 20V28H54.98V21.15L44 14.81V12.5ZM59 -21V-13.5L71.99 -6H72V-8.31H71.99L61 -14.65V-21H59ZM59 28V20L71.99 12.5H72V14.81H71.99L61 21.15V28H59Z" fill="url(#paint0_radial_103_2372)"/>
<path d="M57.99 37.25L70.99 44.75V59.75L57.99 67.25L45 59.75V44.75L57.99 37.25ZM47 45.9V58.6L57.99 64.94L68.99 58.59V45.9L57.99 39.56L47 45.9ZM44 43L56.98 35.5V28H54.98V34.35L44 40.69V43ZM44 61.5L56.98 69V77H54.98V70.15L44 63.81V61.5ZM59 28V35.5L71.99 43H72V40.69H71.99L61 34.35V28H59ZM59 77V69L71.99 61.5H72V63.81H71.99L61 70.15V77H59Z" fill="url(#paint1_radial_103_2372)"/>
<path d="M84.99 -11.75L97.99 -4.25V10.75L84.99 18.25L72 10.75V-4.25L84.99 -11.75ZM74 -3.1V9.6L84.99 15.94L95.99 9.59V-3.1L84.99 -9.44L74 -3.1ZM71 -6L83.98 -13.5V-21H81.98V-14.65L71 -8.31V-6ZM71 12.5L83.98 20V28H81.98V21.15L71 14.81V12.5ZM86 -21V-13.5L98.99 -6H99V-8.31H98.99L88 -14.65V-21H86ZM86 28V20L98.99 12.5H99V14.81H98.99L88 21.15V28H86Z" fill="url(#paint2_radial_103_2372)"/>
<path d="M84.99 37.25L97.99 44.75V59.75L84.99 67.25L72 59.75V44.75L84.99 37.25ZM74 45.9V58.6L84.99 64.94L95.99 58.59V45.9L84.99 39.56L74 45.9ZM71 43L83.98 35.5V28H81.98V34.35L71 40.69V43ZM71 61.5L83.98 69V77H81.98V70.15L71 63.81V61.5ZM86 28V35.5L98.99 43H99V40.69H98.99L88 34.35V28H86ZM86 77V69L98.99 61.5H99V63.81H98.99L88 70.15V77H86Z" fill="url(#paint3_radial_103_2372)"/>
<path d="M112.99 37.25L125.99 44.75V59.75L112.99 67.25L100 59.75V44.75L112.99 37.25ZM102 45.9V58.6L112.99 64.94L123.99 58.59V45.9L112.99 39.56L102 45.9ZM99 43L111.98 35.5V28H109.98V34.35L99 40.69V43ZM99 61.5L111.98 69V77H109.98V70.15L99 63.81V61.5ZM114 28V35.5L126.99 43H127V40.69H126.99L116 34.35V28H114ZM114 77V69L126.99 61.5H127V63.81H126.99L116 70.15V77H114Z" fill="url(#paint4_radial_103_2372)"/>
<path d="M140.99 37.25L153.99 44.75V59.75L140.99 67.25L128 59.75V44.75L140.99 37.25ZM130 45.9V58.6L140.99 64.94L151.99 58.59V45.9L140.99 39.56L130 45.9ZM127 43L139.98 35.5V28H137.98V34.35L127 40.69V43ZM127 61.5L139.98 69V77H137.98V70.15L127 63.81V61.5ZM142 28V35.5L154.99 43H155V40.69H154.99L144 34.35V28H142ZM142 77V69L154.99 61.5H155V63.81H154.99L144 70.15V77H142Z" fill="url(#paint5_radial_103_2372)"/>
<path d="M140.99 -11.75L153.99 -4.25V10.75L140.99 18.25L128 10.75V-4.25L140.99 -11.75ZM130 -3.1V9.6L140.99 15.94L151.99 9.59V-3.1L140.99 -9.44L130 -3.1ZM127 -6L139.98 -13.5V-21H137.98V-14.65L127 -8.31V-6ZM127 12.5L139.98 20V28H137.98V21.15L127 14.81V12.5ZM142 -21V-13.5L154.99 -6H155V-8.31H154.99L144 -14.65V-21H142ZM142 28V20L154.99 12.5H155V14.81H154.99L144 21.15V28H142Z" fill="url(#paint6_radial_103_2372)"/>
<path d="M112.99 -11.75L125.99 -4.25V10.75L112.99 18.25L100 10.75V-4.25L112.99 -11.75ZM102 -3.1V9.6L112.99 15.94L123.99 9.59V-3.1L112.99 -9.44L102 -3.1ZM99 -6L111.98 -13.5V-21H109.98V-14.65L99 -8.31V-6ZM99 12.5L111.98 20V28H109.98V21.15L99 14.81V12.5ZM114 -21V-13.5L126.99 -6H127V-8.31H126.99L116 -14.65V-21H114ZM114 28V20L126.99 12.5H127V14.81H126.99L116 21.15V28H114Z" fill="url(#paint7_radial_103_2372)"/>
<path d="M168.99 -11.75L181.99 -4.25V10.75L168.99 18.25L156 10.75V-4.25L168.99 -11.75ZM158 -3.1V9.6L168.99 15.94L179.99 9.59V-3.1L168.99 -9.44L158 -3.1ZM155 -6L167.98 -13.5V-21H165.98V-14.65L155 -8.31V-6ZM155 12.5L167.98 20V28H165.98V21.15L155 14.81V12.5ZM170 -21V-13.5L182.99 -6H183V-8.31H182.99L172 -14.65V-21H170ZM170 28V20L182.99 12.5H183V14.81H182.99L172 21.15V28H170Z" fill="url(#paint8_radial_103_2372)"/>
<path d="M168.99 37.25L181.99 44.75V59.75L168.99 67.25L156 59.75V44.75L168.99 37.25ZM158 45.9V58.6L168.99 64.94L179.99 58.59V45.9L168.99 39.56L158 45.9ZM155 43L167.98 35.5V28H165.98V34.35L155 40.69V43ZM155 61.5L167.98 69V77H165.98V70.15L155 63.81V61.5ZM170 28V35.5L182.99 43H183V40.69H182.99L172 34.35V28H170ZM170 77V69L182.99 61.5H183V63.81H182.99L172 70.15V77H170Z" fill="url(#paint9_radial_103_2372)"/>
<path d="M195.99 -11.75L208.99 -4.25V10.75L195.99 18.25L183 10.75V-4.25L195.99 -11.75ZM185 -3.1V9.6L195.99 15.94L206.99 9.59V-3.1L195.99 -9.44L185 -3.1ZM182 -6L194.98 -13.5V-21H192.98V-14.65L182 -8.31V-6ZM182 12.5L194.98 20V28H192.98V21.15L182 14.81V12.5ZM197 -21V-13.5L209.99 -6H210V-8.31H209.99L199 -14.65V-21H197ZM197 28V20L209.99 12.5H210V14.81H209.99L199 21.15V28H197Z" fill="url(#paint10_radial_103_2372)"/>
<path d="M195.99 37.25L208.99 44.75V59.75L195.99 67.25L183 59.75V44.75L195.99 37.25ZM185 45.9V58.6L195.99 64.94L206.99 58.59V45.9L195.99 39.56L185 45.9ZM182 43L194.98 35.5V28H192.98V34.35L182 40.69V43ZM182 61.5L194.98 69V77H192.98V70.15L182 63.81V61.5ZM197 28V35.5L209.99 43H210V40.69H209.99L199 34.35V28H197ZM197 77V69L209.99 61.5H210V63.81H209.99L199 70.15V77H197Z" fill="url(#paint11_radial_103_2372)"/>
<path d="M223.99 37.25L236.99 44.75V59.75L223.99 67.25L211 59.75V44.75L223.99 37.25ZM213 45.9V58.6L223.99 64.94L234.99 58.59V45.9L223.99 39.56L213 45.9ZM210 43L222.98 35.5V28H220.98V34.35L210 40.69V43ZM210 61.5L222.98 69V77H220.98V70.15L210 63.81V61.5ZM225 28V35.5L237.99 43H238V40.69H237.99L227 34.35V28H225ZM225 77V69L237.99 61.5H238V63.81H237.99L227 70.15V77H225Z" fill="url(#paint12_radial_103_2372)"/>
<path d="M251.99 37.25L264.99 44.75V59.75L251.99 67.25L239 59.75V44.75L251.99 37.25ZM241 45.9V58.6L251.99 64.94L262.99 58.59V45.9L251.99 39.56L241 45.9ZM238 43L250.98 35.5V28H248.98V34.35L238 40.69V43ZM238 61.5L250.98 69V77H248.98V70.15L238 63.81V61.5ZM253 28V35.5L265.99 43H266V40.69H265.99L255 34.35V28H253ZM253 77V69L265.99 61.5H266V63.81H265.99L255 70.15V77H253Z" fill="url(#paint13_radial_103_2372)"/>
<path d="M251.99 -11.75L264.99 -4.25V10.75L251.99 18.25L239 10.75V-4.25L251.99 -11.75ZM241 -3.1V9.6L251.99 15.94L262.99 9.59V-3.1L251.99 -9.44L241 -3.1ZM238 -6L250.98 -13.5V-21H248.98V-14.65L238 -8.31V-6ZM238 12.5L250.98 20V28H248.98V21.15L238 14.81V12.5ZM253 -21V-13.5L265.99 -6H266V-8.31H265.99L255 -14.65V-21H253ZM253 28V20L265.99 12.5H266V14.81H265.99L255 21.15V28H253Z" fill="url(#paint14_radial_103_2372)"/>
<path d="M223.99 -11.75L236.99 -4.25V10.75L223.99 18.25L211 10.75V-4.25L223.99 -11.75ZM213 -3.1V9.6L223.99 15.94L234.99 9.59V-3.1L223.99 -9.44L213 -3.1ZM210 -6L222.98 -13.5V-21H220.98V-14.65L210 -8.31V-6ZM210 12.5L222.98 20V28H220.98V21.15L210 14.81V12.5ZM225 -21V-13.5L237.99 -6H238V-8.31H237.99L227 -14.65V-21H225ZM225 28V20L237.99 12.5H238V14.81H237.99L227 21.15V28H225Z" fill="url(#paint15_radial_103_2372)"/>
<path d="M168.99 86.25L181.99 93.75V108.75L168.99 116.25L156 108.75V93.75L168.99 86.25ZM158 94.9V107.6L168.99 113.94L179.99 107.59V94.9L168.99 88.56L158 94.9ZM155 92L167.98 84.5V77H165.98V83.35L155 89.69V92ZM155 110.5L167.98 118V126H165.98V119.15L155 112.81V110.5ZM170 77V84.5L182.99 92H183V89.69H182.99L172 83.35V77H170ZM170 126V118L182.99 110.5H183V112.81H182.99L172 119.15V126H170Z" fill="url(#paint16_radial_103_2372)"/>
<path d="M168.99 135.25L181.99 142.75V157.75L168.99 165.25L156 157.75V142.75L168.99 135.25ZM158 143.9V156.6L168.99 162.94L179.99 156.59V143.9L168.99 137.56L158 143.9ZM155 141L167.98 133.5V126H165.98V132.35L155 138.69V141ZM155 159.5L167.98 167V175H165.98V168.15L155 161.81V159.5ZM170 126V133.5L182.99 141H183V138.69H182.99L172 132.35V126H170ZM170 175V167L182.99 159.5H183V161.81H182.99L172 168.15V175H170Z" fill="url(#paint17_radial_103_2372)"/>
<path d="M195.99 86.25L208.99 93.75V108.75L195.99 116.25L183 108.75V93.75L195.99 86.25ZM185 94.9V107.6L195.99 113.94L206.99 107.59V94.9L195.99 88.56L185 94.9ZM182 92L194.98 84.5V77H192.98V83.35L182 89.69V92ZM182 110.5L194.98 118V126H192.98V119.15L182 112.81V110.5ZM197 77V84.5L209.99 92H210V89.69H209.99L199 83.35V77H197ZM197 126V118L209.99 110.5H210V112.81H209.99L199 119.15V126H197Z" fill="url(#paint18_radial_103_2372)"/>
<path d="M195.99 135.25L208.99 142.75V157.75L195.99 165.25L183 157.75V142.75L195.99 135.25ZM185 143.9V156.6L195.99 162.94L206.99 156.59V143.9L195.99 137.56L185 143.9ZM182 141L194.98 133.5V126H192.98V132.35L182 138.69V141ZM182 159.5L194.98 167V175H192.98V168.15L182 161.81V159.5ZM197 126V133.5L209.99 141H210V138.69H209.99L199 132.35V126H197ZM197 175V167L209.99 159.5H210V161.81H209.99L199 168.15V175H197Z" fill="url(#paint19_radial_103_2372)"/>
<path d="M223.99 135.25L236.99 142.75V157.75L223.99 165.25L211 157.75V142.75L223.99 135.25ZM213 143.9V156.6L223.99 162.94L234.99 156.59V143.9L223.99 137.56L213 143.9ZM210 141L222.98 133.5V126H220.98V132.35L210 138.69V141ZM210 159.5L222.98 167V175H220.98V168.15L210 161.81V159.5ZM225 126V133.5L237.99 141H238V138.69H237.99L227 132.35V126H225ZM225 175V167L237.99 159.5H238V161.81H237.99L227 168.15V175H225Z" fill="url(#paint20_radial_103_2372)"/>
<path d="M251.99 135.25L264.99 142.75V157.75L251.99 165.25L239 157.75V142.75L251.99 135.25ZM241 143.9V156.6L251.99 162.94L262.99 156.59V143.9L251.99 137.56L241 143.9ZM238 141L250.98 133.5V126H248.98V132.35L238 138.69V141ZM238 159.5L250.98 167V175H248.98V168.15L238 161.81V159.5ZM253 126V133.5L265.99 141H266V138.69H265.99L255 132.35V126H253ZM253 175V167L265.99 159.5H266V161.81H265.99L255 168.15V175H253Z" fill="url(#paint21_radial_103_2372)"/>
<path d="M251.99 86.25L264.99 93.75V108.75L251.99 116.25L239 108.75V93.75L251.99 86.25ZM241 94.9V107.6L251.99 113.94L262.99 107.59V94.9L251.99 88.56L241 94.9ZM238 92L250.98 84.5V77H248.98V83.35L238 89.69V92ZM238 110.5L250.98 118V126H248.98V119.15L238 112.81V110.5ZM253 77V84.5L265.99 92H266V89.69H265.99L255 83.35V77H253ZM253 126V118L265.99 110.5H266V112.81H265.99L255 119.15V126H253Z" fill="url(#paint22_radial_103_2372)"/>
<path d="M223.99 86.25L236.99 93.75V108.75L223.99 116.25L211 108.75V93.75L223.99 86.25ZM213 94.9V107.6L223.99 113.94L234.99 107.59V94.9L223.99 88.56L213 94.9ZM210 92L222.98 84.5V77H220.98V83.35L210 89.69V92ZM210 110.5L222.98 118V126H220.98V119.15L210 112.81V110.5ZM225 77V84.5L237.99 92H238V89.69H237.99L227 83.35V77H225ZM225 126V118L237.99 110.5H238V112.81H237.99L227 119.15V126H225Z" fill="url(#paint23_radial_103_2372)"/>
<path d="M57.99 86.25L70.99 93.75V108.75L57.99 116.25L45 108.75V93.75L57.99 86.25ZM47 94.9V107.6L57.99 113.94L68.99 107.59V94.9L57.99 88.56L47 94.9ZM44 92L56.98 84.5V77H54.98V83.35L44 89.69V92ZM44 110.5L56.98 118V126H54.98V119.15L44 112.81V110.5ZM59 77V84.5L71.99 92H72V89.69H71.99L61 83.35V77H59ZM59 126V118L71.99 110.5H72V112.81H71.99L61 119.15V126H59Z" fill="url(#paint24_radial_103_2372)"/>
<path d="M57.99 135.25L70.99 142.75V157.75L57.99 165.25L45 157.75V142.75L57.99 135.25ZM47 143.9V156.6L57.99 162.94L68.99 156.59V143.9L57.99 137.56L47 143.9ZM44 141L56.98 133.5V126H54.98V132.35L44 138.69V141ZM44 159.5L56.98 167V175H54.98V168.15L44 161.81V159.5ZM59 126V133.5L71.99 141H72V138.69H71.99L61 132.35V126H59ZM59 175V167L71.99 159.5H72V161.81H71.99L61 168.15V175H59Z" fill="url(#paint25_radial_103_2372)"/>
<path d="M84.99 86.25L97.99 93.75V108.75L84.99 116.25L72 108.75V93.75L84.99 86.25ZM74 94.9V107.6L84.99 113.94L95.99 107.59V94.9L84.99 88.56L74 94.9ZM71 92L83.98 84.5V77H81.98V83.35L71 89.69V92ZM71 110.5L83.98 118V126H81.98V119.15L71 112.81V110.5ZM86 77V84.5L98.99 92H99V89.69H98.99L88 83.35V77H86ZM86 126V118L98.99 110.5H99V112.81H98.99L88 119.15V126H86Z" fill="url(#paint26_radial_103_2372)"/>
<path d="M84.99 135.25L97.99 142.75V157.75L84.99 165.25L72 157.75V142.75L84.99 135.25ZM74 143.9V156.6L84.99 162.94L95.99 156.59V143.9L84.99 137.56L74 143.9ZM71 141L83.98 133.5V126H81.98V132.35L71 138.69V141ZM71 159.5L83.98 167V175H81.98V168.15L71 161.81V159.5ZM86 126V133.5L98.99 141H99V138.69H98.99L88 132.35V126H86ZM86 175V167L98.99 159.5H99V161.81H98.99L88 168.15V175H86Z" fill="url(#paint27_radial_103_2372)"/>
<path d="M112.99 135.25L125.99 142.75V157.75L112.99 165.25L100 157.75V142.75L112.99 135.25ZM102 143.9V156.6L112.99 162.94L123.99 156.59V143.9L112.99 137.56L102 143.9ZM99 141L111.98 133.5V126H109.98V132.35L99 138.69V141ZM99 159.5L111.98 167V175H109.98V168.15L99 161.81V159.5ZM114 126V133.5L126.99 141H127V138.69H126.99L116 132.35V126H114ZM114 175V167L126.99 159.5H127V161.81H126.99L116 168.15V175H114Z" fill="url(#paint28_radial_103_2372)"/>
<path d="M140.99 135.25L153.99 142.75V157.75L140.99 165.25L128 157.75V142.75L140.99 135.25ZM130 143.9V156.6L140.99 162.94L151.99 156.59V143.9L140.99 137.56L130 143.9ZM127 141L139.98 133.5V126H137.98V132.35L127 138.69V141ZM127 159.5L139.98 167V175H137.98V168.15L127 161.81V159.5ZM142 126V133.5L154.99 141H155V138.69H154.99L144 132.35V126H142ZM142 175V167L154.99 159.5H155V161.81H154.99L144 168.15V175H142Z" fill="url(#paint29_radial_103_2372)"/>
<path d="M140.99 86.25L153.99 93.75V108.75L140.99 116.25L128 108.75V93.75L140.99 86.25ZM130 94.9V107.6L140.99 113.94L151.99 107.59V94.9L140.99 88.56L130 94.9ZM127 92L139.98 84.5V77H137.98V83.35L127 89.69V92ZM127 110.5L139.98 118V126H137.98V119.15L127 112.81V110.5ZM142 77V84.5L154.99 92H155V89.69H154.99L144 83.35V77H142ZM142 126V118L154.99 110.5H155V112.81H154.99L144 119.15V126H142Z" fill="url(#paint30_radial_103_2372)"/>
<path d="M112.99 86.25L125.99 93.75V108.75L112.99 116.25L100 108.75V93.75L112.99 86.25ZM102 94.9V107.6L112.99 113.94L123.99 107.59V94.9L112.99 88.56L102 94.9ZM99 92L111.98 84.5V77H109.98V83.35L99 89.69V92ZM99 110.5L111.98 118V126H109.98V119.15L99 112.81V110.5ZM114 77V84.5L126.99 92H127V89.69H126.99L116 83.35V77H114ZM114 126V118L126.99 110.5H127V112.81H126.99L116 119.15V126H114Z" fill="url(#paint31_radial_103_2372)"/>
<path d="M109.925 90.9254C109.925 63.3111 132.311 40.9254 159.925 40.9254V40.9254C187.54 40.9254 209.925 63.3112 209.925 90.9254V90.9254C209.925 118.54 187.54 140.925 159.925 140.925V140.925C132.311 140.925 109.925 118.54 109.925 90.9254V90.9254Z" fill="url(#paint32_radial_103_2372)"/>
<path d="M159.925 41.4254C187.263 41.4254 209.425 63.5873 209.425 90.9254C209.425 118.263 187.263 140.425 159.925 140.425C132.587 140.425 110.425 118.263 110.425 90.9254C110.425 63.5873 132.587 41.4254 159.925 41.4254Z" stroke="white" stroke-opacity="0.1"/>
<rect x="129.224" y="60.2244" width="59" height="59" rx="29.5" stroke="white" stroke-opacity="0.1"/>
<rect x="139.124" y="70.1239" width="39" height="39" rx="19.5" stroke="white" stroke-opacity="0.1"/>
<rect x="119.5" y="49.8553" width="79" height="79" rx="39.5" stroke="white" stroke-opacity="0.1"/>
</g>
<defs>
<radialGradient id="paint0_radial_103_2372" cx="0" cy="0" r="1" gradientUnits="userSpaceOnUse" gradientTransform="translate(155 77) rotate(90) scale(112.5 127.423)">
<stop stop-color="white" stop-opacity="0.1"/>
<stop offset="1" stop-color="white" stop-opacity="0"/>
</radialGradient>
<radialGradient id="paint1_radial_103_2372" cx="0" cy="0" r="1" gradientUnits="userSpaceOnUse" gradientTransform="translate(155 77) rotate(90) scale(112.5 127.423)">
<stop stop-color="white" stop-opacity="0.1"/>
<stop offset="1" stop-color="white" stop-opacity="0"/>
</radialGradient>
<radialGradient id="paint2_radial_103_2372" cx="0" cy="0" r="1" gradientUnits="userSpaceOnUse" gradientTransform="translate(155 77) rotate(90) scale(112.5 127.423)">
<stop stop-color="white" stop-opacity="0.1"/>
<stop offset="1" stop-color="white" stop-opacity="0"/>
</radialGradient>
<radialGradient id="paint3_radial_103_2372" cx="0" cy="0" r="1" gradientUnits="userSpaceOnUse" gradientTransform="translate(155 77) rotate(90) scale(112.5 127.423)">
<stop stop-color="white" stop-opacity="0.1"/>
<stop offset="1" stop-color="white" stop-opacity="0"/>
</radialGradient>
<radialGradient id="paint4_radial_103_2372" cx="0" cy="0" r="1" gradientUnits="userSpaceOnUse" gradientTransform="translate(155 77) rotate(90) scale(112.5 127.423)">
<stop stop-color="white" stop-opacity="0.1"/>
<stop offset="1" stop-color="white" stop-opacity="0"/>
</radialGradient>
<radialGradient id="paint5_radial_103_2372" cx="0" cy="0" r="1" gradientUnits="userSpaceOnUse" gradientTransform="translate(155 77) rotate(90) scale(112.5 127.423)">
<stop stop-color="white" stop-opacity="0.1"/>
<stop offset="1" stop-color="white" stop-opacity="0"/>
</radialGradient>
<radialGradient id="paint6_radial_103_2372" cx="0" cy="0" r="1" gradientUnits="userSpaceOnUse" gradientTransform="translate(155 77) rotate(90) scale(112.5 127.423)">
<stop stop-color="white" stop-opacity="0.1"/>
<stop offset="1" stop-color="white" stop-opacity="0"/>
</radialGradient>
<radialGradient id="paint7_radial_103_2372" cx="0" cy="0" r="1" gradientUnits="userSpaceOnUse" gradientTransform="translate(155 77) rotate(90) scale(112.5 127.423)">
<stop stop-color="white" stop-opacity="0.1"/>
<stop offset="1" stop-color="white" stop-opacity="0"/>
</radialGradient>
<radialGradient id="paint8_radial_103_2372" cx="0" cy="0" r="1" gradientUnits="userSpaceOnUse" gradientTransform="translate(155 77) rotate(90) scale(112.5 127.423)">
<stop stop-color="white" stop-opacity="0.1"/>
<stop offset="1" stop-color="white" stop-opacity="0"/>
</radialGradient>
<radialGradient id="paint9_radial_103_2372" cx="0" cy="0" r="1" gradientUnits="userSpaceOnUse" gradientTransform="translate(155 77) rotate(90) scale(112.5 127.423)">
<stop stop-color="white" stop-opacity="0.1"/>
<stop offset="1" stop-color="white" stop-opacity="0"/>
</radialGradient>
<radialGradient id="paint10_radial_103_2372" cx="0" cy="0" r="1" gradientUnits="userSpaceOnUse" gradientTransform="translate(155 77) rotate(90) scale(112.5 127.423)">
<stop stop-color="white" stop-opacity="0.1"/>
<stop offset="1" stop-color="white" stop-opacity="0"/>
</radialGradient>
<radialGradient id="paint11_radial_103_2372" cx="0" cy="0" r="1" gradientUnits="userSpaceOnUse" gradientTransform="translate(155 77) rotate(90) scale(112.5 127.423)">
<stop stop-color="white" stop-opacity="0.1"/>
<stop offset="1" stop-color="white" stop-opacity="0"/>
</radialGradient>
<radialGradient id="paint12_radial_103_2372" cx="0" cy="0" r="1" gradientUnits="userSpaceOnUse" gradientTransform="translate(155 77) rotate(90) scale(112.5 127.423)">
<stop stop-color="white" stop-opacity="0.1"/>
<stop offset="1" stop-color="white" stop-opacity="0"/>
</radialGradient>
<radialGradient id="paint13_radial_103_2372" cx="0" cy="0" r="1" gradientUnits="userSpaceOnUse" gradientTransform="translate(155 77) rotate(90) scale(112.5 127.423)">
<stop stop-color="white" stop-opacity="0.1"/>
<stop offset="1" stop-color="white" stop-opacity="0"/>
</radialGradient>
<radialGradient id="paint14_radial_103_2372" cx="0" cy="0" r="1" gradientUnits="userSpaceOnUse" gradientTransform="translate(155 77) rotate(90) scale(112.5 127.423)">
<stop stop-color="white" stop-opacity="0.1"/>
<stop offset="1" stop-color="white" stop-opacity="0"/>
</radialGradient>
<radialGradient id="paint15_radial_103_2372" cx="0" cy="0" r="1" gradientUnits="userSpaceOnUse" gradientTransform="translate(155 77) rotate(90) scale(112.5 127.423)">
<stop stop-color="white" stop-opacity="0.1"/>
<stop offset="1" stop-color="white" stop-opacity="0"/>
</radialGradient>
<radialGradient id="paint16_radial_103_2372" cx="0" cy="0" r="1" gradientUnits="userSpaceOnUse" gradientTransform="translate(155 77) rotate(90) scale(112.5 127.423)">
<stop stop-color="white" stop-opacity="0.1"/>
<stop offset="1" stop-color="white" stop-opacity="0"/>
</radialGradient>
<radialGradient id="paint17_radial_103_2372" cx="0" cy="0" r="1" gradientUnits="userSpaceOnUse" gradientTransform="translate(155 77) rotate(90) scale(112.5 127.423)">
<stop stop-color="white" stop-opacity="0.1"/>
<stop offset="1" stop-color="white" stop-opacity="0"/>
</radialGradient>
<radialGradient id="paint18_radial_103_2372" cx="0" cy="0" r="1" gradientUnits="userSpaceOnUse" gradientTransform="translate(155 77) rotate(90) scale(112.5 127.423)">
<stop stop-color="white" stop-opacity="0.1"/>
<stop offset="1" stop-color="white" stop-opacity="0"/>
</radialGradient>
<radialGradient id="paint19_radial_103_2372" cx="0" cy="0" r="1" gradientUnits="userSpaceOnUse" gradientTransform="translate(155 77) rotate(90) scale(112.5 127.423)">
<stop stop-color="white" stop-opacity="0.1"/>
<stop offset="1" stop-color="white" stop-opacity="0"/>
</radialGradient>
<radialGradient id="paint20_radial_103_2372" cx="0" cy="0" r="1" gradientUnits="userSpaceOnUse" gradientTransform="translate(155 77) rotate(90) scale(112.5 127.423)">
<stop stop-color="white" stop-opacity="0.1"/>
<stop offset="1" stop-color="white" stop-opacity="0"/>
</radialGradient>
<radialGradient id="paint21_radial_103_2372" cx="0" cy="0" r="1" gradientUnits="userSpaceOnUse" gradientTransform="translate(155 77) rotate(90) scale(112.5 127.423)">
<stop stop-color="white" stop-opacity="0.1"/>
<stop offset="1" stop-color="white" stop-opacity="0"/>
</radialGradient>
<radialGradient id="paint22_radial_103_2372" cx="0" cy="0" r="1" gradientUnits="userSpaceOnUse" gradientTransform="translate(155 77) rotate(90) scale(112.5 127.423)">
<stop stop-color="white" stop-opacity="0.1"/>
<stop offset="1" stop-color="white" stop-opacity="0"/>
</radialGradient>
<radialGradient id="paint23_radial_103_2372" cx="0" cy="0" r="1" gradientUnits="userSpaceOnUse" gradientTransform="translate(155 77) rotate(90) scale(112.5 127.423)">
<stop stop-color="white" stop-opacity="0.1"/>
<stop offset="1" stop-color="white" stop-opacity="0"/>
</radialGradient>
<radialGradient id="paint24_radial_103_2372" cx="0" cy="0" r="1" gradientUnits="userSpaceOnUse" gradientTransform="translate(155 77) rotate(90) scale(112.5 127.423)">
<stop stop-color="white" stop-opacity="0.1"/>
<stop offset="1" stop-color="white" stop-opacity="0"/>
</radialGradient>
<radialGradient id="paint25_radial_103_2372" cx="0" cy="0" r="1" gradientUnits="userSpaceOnUse" gradientTransform="translate(155 77) rotate(90) scale(112.5 127.423)">
<stop stop-color="white" stop-opacity="0.1"/>
<stop offset="1" stop-color="white" stop-opacity="0"/>
</radialGradient>
<radialGradient id="paint26_radial_103_2372" cx="0" cy="0" r="1" gradientUnits="userSpaceOnUse" gradientTransform="translate(155 77) rotate(90) scale(112.5 127.423)">
<stop stop-color="white" stop-opacity="0.1"/>
<stop offset="1" stop-color="white" stop-opacity="0"/>
</radialGradient>
<radialGradient id="paint27_radial_103_2372" cx="0" cy="0" r="1" gradientUnits="userSpaceOnUse" gradientTransform="translate(155 77) rotate(90) scale(112.5 127.423)">
<stop stop-color="white" stop-opacity="0.1"/>
<stop offset="1" stop-color="white" stop-opacity="0"/>
</radialGradient>
<radialGradient id="paint28_radial_103_2372" cx="0" cy="0" r="1" gradientUnits="userSpaceOnUse" gradientTransform="translate(155 77) rotate(90) scale(112.5 127.423)">
<stop stop-color="white" stop-opacity="0.1"/>
<stop offset="1" stop-color="white" stop-opacity="0"/>
</radialGradient>
<radialGradient id="paint29_radial_103_2372" cx="0" cy="0" r="1" gradientUnits="userSpaceOnUse" gradientTransform="translate(155 77) rotate(90) scale(112.5 127.423)">
<stop stop-color="white" stop-opacity="0.1"/>
<stop offset="1" stop-color="white" stop-opacity="0"/>
</radialGradient>
<radialGradient id="paint30_radial_103_2372" cx="0" cy="0" r="1" gradientUnits="userSpaceOnUse" gradientTransform="translate(155 77) rotate(90) scale(112.5 127.423)">
<stop stop-color="white" stop-opacity="0.1"/>
<stop offset="1" stop-color="white" stop-opacity="0"/>
</radialGradient>
<radialGradient id="paint31_radial_103_2372" cx="0" cy="0" r="1" gradientUnits="userSpaceOnUse" gradientTransform="translate(155 77) rotate(90) scale(112.5 127.423)">
<stop stop-color="white" stop-opacity="0.1"/>
<stop offset="1" stop-color="white" stop-opacity="0"/>
</radialGradient>
<radialGradient id="paint32_radial_103_2372" cx="0" cy="0" r="1" gradientUnits="userSpaceOnUse" gradientTransform="translate(159.925 90.9254) rotate(90) scale(50)">
<stop stop-color="#58559F"/>
<stop offset="1" stop-color="#33306D"/>
</radialGradient>
<clipPath id="clip0_103_2372">
<rect width="325" height="198" rx="10" fill="white"/>
</clipPath>
</defs>
</svg>
