<svg width="26" height="26" viewBox="0 0 26 26" fill="none" xmlns="http://www.w3.org/2000/svg">
<path d="M21.8126 16.0138V20.6915C21.8126 21.31 21.31 21.8126 20.6915 21.8126H5.31176C4.69322 21.8126 4.19066 21.31 4.19066 20.6915V5.31176C4.19066 4.69322 4.69322 4.19066 5.31176 4.19066H9.98946C10.5951 4.19066 11.0848 3.70098 11.0848 3.09533C11.0848 2.48968 10.5951 2 9.98946 2H4.22609C2.99546 2 2 2.99868 2 4.22609V21.7739C2 23.0045 2.99868 24 4.22609 24H21.7739C23.0045 24 24 23.0013 24 21.7739V16.0138C24 15.4081 23.5103 14.9184 22.9047 14.9184C22.3022 14.9184 21.8126 15.4081 21.8126 16.0138Z" fill="white"/>
<path d="M22.7656 2H15.9223C15.2427 2 14.6932 2.54938 14.6932 3.22888C14.6932 3.90838 15.2427 4.45776 15.9223 4.45776H19.8049L14.3606 9.90097C13.8798 10.3817 13.8798 11.1588 14.3606 11.6395C14.8414 12.1202 15.6186 12.1202 16.0995 11.6395L21.5365 6.19987V10.0708C21.5365 10.7503 22.086 11.2997 22.7656 11.2997C23.4453 11.2997 23.9948 10.7503 23.9948 10.0708V3.34092C24.0273 2.99033 23.908 2.6289 23.6405 2.35782C23.3983 2.11927 23.0802 2 22.7656 2Z" fill="white"/>
</svg>
